<svg xmlns="http://www.w3.org/2000/svg" xmlns:xlink="http://www.w3.org/1999/xlink" width="400" height="400" viewBox="0 0 400 400">
<rect data-name="background" width="100%" height="100%" fill="#EFC9AF"/><g data-name="container" data="container_num:20" fill="#104C91" transform="translate(24.42179764101087,24) scale(3.2622800733213846)"><path xmlns="http://www.w3.org/2000/svg" d="M4.6 5.1h98.3v24.1c.1 2.9.1 6 .2 8.1s.1 1 .1.8a61.5 61.5 0 0 0 .3-6.7v-4.2c.1-6.7 0-13.5 0-20.2V4.3H4.6V.8h102.3v24.1c.1 2.9.1 6 .2 8.1s.1 1 .1.8a61.5 61.5 0 0 0 .3-6.7v-4.2c.1-6.7 0-13.5 0-20.2V0H4v4.5H0v47.1c.1 2.7.1 5.8 0 8.7v47.6h43.5l16.7-.2h10.9a64.7 64.7 0 0 0 8.1-.3H.7V36.7C.6 31.5.6 26.3.6 21V5.1H4v42.1c-.1 2.7-.1 5.8-.1 8.8v47.6h43.6l16.7-.2h10.9a64.7 64.7 0 0 0 8.1-.3H4.7V16.7c0-5.3-.1-7.7-.1-11.6zm103 53.2v-4.7l-.2-7.8c-.1-3.2-.2-3.8-.3-3.8 0 1.9-.1 3.9-.1 5.9v17.3c0 3.1 0 6.3-.1 9.2v15.7c0 3.3 0 6.3.1 9.3v3.9l-1.9-.2h-1.7q.1-2.4.1-5.2V73.6c0-3.5.1-6.9.1-10.8v-4.7l-.2-7.8c-.1-3.2-.2-3.8-.3-3.8 0 1.9-.1 3.9-.1 5.9v17.3c0 3.1 0 6.3-.1 9.2v15.7c0 3.3 0 5.8.1 8.5H92.4c-.4.1-1.3.1-.9.1l3.5.2h8v4.2l-1.9-.2H88.4c-.4.1-1.3.1-.9.1l3.5.2h12.1c.1.3.1.1.2-1.2s.1-2 .1-3h3.7c.1.3.1.1.2-1.2s.1-5.3.2-8.7V69.3c.1-3.8.2-7.2.1-11z"/></g><g data-name="icon" fill="#1F8AC0" data="id:7127917" transform="translate(130.02778103950874,79.0672222284375) scale(1.3994135769929548)">
    
 <path d="m32.816 65.195c4.3828 3.9883 10.016 6.3281 15.93 6.6133v-4.1602c0-0.69141 0.5625-1.25 1.2539-1.25s1.2539 0.55859 1.2539 1.25v4.1602c5.9141-0.28516 11.547-2.625 15.93-6.6133l-2.9297-2.9336-0.003906 0.003906c-0.48828-0.48828-0.48828-1.2812 0-1.7695 0.49219-0.49219 1.2852-0.49219 1.7734 0l2.9336 2.9297h-0.003906c3.9883-4.3789 6.3242-10.012 6.6133-15.93h-4.1602c-0.69141 0-1.25-0.5625-1.25-1.2539v-1.25h5.4102c-0.28906-5.918-2.625-11.551-6.6133-15.934l-1.7734 1.7734-1.1562 1.1602c-0.48828 0.48828-1.2812 0.48828-1.7734 0-0.48828-0.48828-0.48828-1.2812 0-1.7734l2.9336-2.9336v0.003906c-4.3828-3.9883-10.016-6.3242-15.93-6.6094v4.1602-0.003906c0 0.69141-0.5625 1.2539-1.2539 1.2539s-1.2539-0.5625-1.2539-1.2539v-4.1562c-5.9141 0.28516-11.547 2.6211-15.93 6.6094l1.7734 1.7734 1.1602 1.1562c0.48828 0.49219 0.48828 1.2852 0 1.7734-0.23828 0.23437-0.55469 0.36719-0.88672 0.36719s-0.65234-0.13281-0.88672-0.36719l-1.1562-1.1602-1.7734-1.7734c-3.9883 4.3828-6.3242 10.016-6.6133 15.934h4.1602c0.33203 0 0.64844 0.12891 0.88672 0.36328 0.23438 0.23828 0.36328 0.55469 0.36328 0.88672 0 0.33203-0.12891 0.65234-0.36328 0.88672-0.23828 0.23438-0.55469 0.36719-0.88672 0.36719h-4.1602c0.28906 5.918 2.625 11.551 6.6133 15.93l2.9297-2.9297c0.49219-0.48828 1.2812-0.48828 1.7695 0 0.48828 0.48828 0.48828 1.2812 0.003906 1.7695zm15.93-20.91v-11.98 0.003906c0-0.69141 0.5625-1.2539 1.2539-1.2539s1.2539 0.5625 1.2539 1.2539v11.98-0.003906c0.66797 0.42578 1.0703 1.1641 1.0703 1.957 0 0.16797-0.019531 0.33594-0.054688 0.5l6.6562 6.6562c0.23828 0.23437 0.36719 0.55078 0.36719 0.88672 0 0.33203-0.12891 0.64844-0.36719 0.88281v0.003906c-0.48828 0.48828-1.2812 0.48828-1.7695 0l-6.6602-6.6602c-0.28906 0.0625-0.58594 0.070312-0.875 0.023437-0.94922-0.15625-1.7031-0.88281-1.8984-1.8242-0.19141-0.94141 0.21484-1.9062 1.0234-2.4258z"/>
 <path d="m94.852 44.426h-6.4648c-0.62891-13.281-8.0781-25.297-19.699-31.762-11.617-6.4688-25.758-6.4688-37.375 0-11.621 6.4648-19.07 18.48-19.699 31.762h-6.4648c-2.6719 0.003907-4.8359 2.1719-4.8398 4.8438v17.863c0.003906 2.6719 2.168 4.8359 4.8398 4.8398h8.3477c1.0664 0 1.9258-0.86328 1.9258-1.9258v-23.691c0-0.035157-0.003906-0.074219-0.003906-0.11328h0.003906c0-12.352 6.5938-23.766 17.289-29.945 10.699-6.1758 23.879-6.1758 34.578 0 10.695 6.1797 17.289 17.594 17.289 29.945h0.003906c0 0.035156-0.003906 0.074218-0.003906 0.11328v24.965c-0.007813 4.5117-1.8008 8.8359-4.9922 12.023-3.1875 3.1914-7.5117 4.9844-12.023 4.9883h-8.6719v-2.5742c0-2.6719-2.168-4.8359-4.8398-4.8398h-8.1016c-2.6719 0.003906-4.8398 2.168-4.8398 4.8398v1.5898c0 2.6719 2.168 4.8359 4.8398 4.8398h21.613c5.418-0.007812 10.625-2.1172 14.516-5.8906 3.8906-3.7695 6.1641-8.9062 6.3398-14.324h6.4336c2.6719-0.003906 4.8359-2.168 4.8398-4.8398v-17.863c-0.003906-2.6719-2.168-4.8398-4.8398-4.8438z"/>

    </g><g data-name="business_name" fill="#104C91" data="id:217" transform="translate(79.85668760168528,185.1141827577943) scale(2.3247544670560947)"><path d="M20.84,28.56l0.16-0.08c-0.12-0.16-0.16-0.84-0.36-0.84c-0.16,0-0.16,0.32-0.52,0.32l0.64-1.48l0.24,0.04c0,0.28-0.16,0.56-0.28,0.76c0.76-0.2,1.4-2.48,1.4-3.16c0-0.12-0.2-0.28-0.36-0.28c0-0.24,0.84-0.12,0.84-0.56c0-0.28-0.32-0.4-0.32-0.68c0-0.12,1.56-2.88,1.76-3.16l-0.08-0.08l0.4-0.2l-0.04,0.16c0.04,0.28,0.4,0.76,0.4,0.92c0,0.64-1.12,2.52-1.4,3.32c-1.04,2.92-2.08,5.8-3.04,8.72c-0.92,2.68-1.36,5.4-1.92,8.12c-0.04,0.2-0.24,0.36-0.24,0.56c0,2.32-0.72,4.6-1.36,6.8c-0.2,0.8-0.32,2.96-1.52,2.96c-0.72,0-2.12-0.88-2.12-1.6c0-0.12,0-0.24,0.08-0.4c0-0.28,0-0.64-0.28-0.8c0-0.44,0.28-0.32,0.28-0.48c0-0.48-0.44-1.12-0.44-1.68c0-0.24,0.12-0.52,0.12-0.76c0-0.72-0.16-1.4-0.2-2.08c-0.2-0.28-0.36-1.04-0.36-1.36c0-0.04,0.08-0.04,0.08-0.04l0.08,0c0-0.96-0.44-1.8-0.44-2.72c0-0.08,0-0.16,0.12-0.28c0-0.28-0.2-0.56-0.28-0.84c-0.08-0.52-0.12-1.04-0.12-1.6c0-0.64-0.36-0.96-0.36-1.44c0-0.68,0.12-1.36,0.12-2.04c0-0.36-0.36-1.28-0.52-2.48l0-0.28c0-0.16,0-0.28-0.04-0.4c-0.12,0.16-0.36,0.24-0.48,0.4c-0.8,1.16-1.4,3.24-2.24,4.68c-0.76,1.28-0.92,2.92-1.64,4.32c-0.32,0.64-0.16,1.4-0.6,2.04c-0.44,0.68-0.64,2.08-1,2.88c-0.72,2.08-1.12,4.16-1.12,6.32c0,0.72,0.4,3.04,1.44,3.04c0.92,0,0.76-0.32,0.96-0.32c0,0.6-0.44,0.92-1.08,0.92c-0.28,0-0.52-0.12-0.8-0.2c-1.92-0.44-2.36-2.32-2.36-3.92c0-0.92,0.68-5.28,1.08-6c0.56-1.04,0.52-2.2,1.12-3.24c0.44-0.88,0.4-2.8,1.4-3.28c-0.16-0.04-0.24-0.16-0.24-0.28c0.2-0.32,0.24-0.68,0.44-0.96c-0.04-0.12-0.04-0.4-0.24-0.4l-0.04,0c0.04,0.12,0.08,0.16,0.08,0.24c0,0.28-0.48,0.28-0.48,0.76l0,0.2c0,0.2-0.04,0.36-0.4,0.4c0-0.04-0.08-0.16-0.08-0.2c0-0.68,1.4-3,1.4-3.96c0.48-0.92,0.8-1.92,1.24-2.8c0.24-0.52,0.6-0.96,0.72-1.52c1.04-1.04,1.16-3.36,3.12-3.36l0.32,0c0.6,0,1.8,0,1.8,0.64c0,0.36-1.2,0.84-1.2,1.28l0.16,0.12c0.56,0.08,0.56,1.32,0.6,1.76c0.04,0.36,0.36,0.64,0.36,1c0,1.56,0.6,3,0.6,4.64c0,0.84,0.4,1.6,0.4,1.76l0,0.64c0,0.4,0.04,0.72,0.24,1.28l-0.04,0.08c0.04,1.12,0.44,2.28,0.44,3.2c0,0.2-0.2,0.32-0.2,0.52s0.04,0.36,0.16,0.52l0.08-0.08l0.08,0.16c-0.04,0.16-0.08,0.36-0.08,0.56c0,0.56,0.16,1.24,0.32,1.64l0.2-0.04l-0.04,0c0-0.24,0.52-1.24,0.56-1.56l-0.12-0.2c0-0.16,0.2-0.36,0.36-0.48c0-0.16-0.04-0.32-0.04-0.48c0-0.48,0.12-0.84,0.28-1.32c0.24-0.6,0-1.68,0.6-2.12c0.32,0,0.44-0.08,0.48-0.4c-0.32,0-0.32,0-0.48-0.24c0.04-0.2,0.32-0.28,0.52-0.32c0-0.2-0.28-0.16-0.32-0.36c0.04-0.04,0.12-0.08,0.24-0.08c0.04,0,0.08,0.04,0.12,0.04l0.08-0.08c-0.16-0.16-0.4-0.36-0.4-0.56c0.16-0.32,0.68-2.44,0.8-2.88c0.04-0.36,0.36-0.68,0.4-1c0.16-1.24,1.2-3.72,1.68-4.8c0.04,0.16,0.08,0.32,0.08,0.48c0,0.12-0.08,0.2-0.24,0.28l0.2,0.08c0.32,0,0.36-0.32,0.68-0.32z M12.92,41.8l0.2,0.04l0-0.28l0-1.16c0-0.68-0.04-1.44-0.2-2.08c-0.04-0.28-0.2-0.48-0.2-0.76c0-0.36,0.32-0.76,0.32-1.12c0-0.16-0.28-0.16-0.28-0.36l0-0.2c0-0.12-0.24-0.6-0.4-0.6c-0.08,0.32-0.08,0.64-0.08,0.96c0,0.08,0.04,0.2,0.04,0.32c0.28,1.52,0.4,3.04,0.48,4.6l0.04-0.04z M23.4,19.68c-0.48,0.4-0.8,0.84-1.04,1.36l-0.28-0.16c0.44-0.48,0.92-2.4,1.76-2.4l0.04,0c-0.04,0.44-0.28,0.8-0.48,1.16l0,0.04z M2.04,46.12c0,0.36,0.04,0.56,0.04,0.8c0,0.2-0.04,0.44-0.2,0.8c-0.2-0.2-0.24-0.48-0.24-0.76c0-0.64,0.48-1.28,0.48-1.92c0.08,0,0.32,0,0.32,0.12c0,0.36-0.4,0.6-0.4,0.96z M2.56,44.04c-0.08,0-0.12-0.04-0.12-0.12c0-0.6,0.48-1.16,0.52-1.76c0.08,0,0.28,0.04,0.28,0.16c0,0.28-0.52,1.4-0.64,1.76z M13.64,46.2c0-0.36,0.08-0.72,0.08-1.08c0-0.16-0.24-0.84-0.44-0.92l-0.08,0.04c0,0.12,0.08,0.32,0.28,0.32c-0.12,0.16-0.16,0.28-0.16,0.44c0,0.4,0.04,0.88,0.32,1.2z M4.04,38.88c0-0.6,0.32-1.32,0.72-1.8l0,0.32c0,0.44-0.28,1.24-0.72,1.48z M2.84,47.4c0-0.72,0.44-1.24,0.44-1.72c0-0.08-0.04-0.16-0.08-0.2c-0.4,0-0.56,1.8-0.6,2.12l0.08,0.12c0.08-0.12,0.16-0.16,0.16-0.32z M18.2,35.04c0.2-0.32,0.24-0.72,0.36-1.04c-0.36,0-0.68,1.24-0.68,1.52c0,0.04,0,0.2,0.08,0.2c0.24,0,0.24-0.52,0.24-0.68z M1.48,47.96c0-0.16,0.2-0.24,0.36-0.24l0.04,0c-0.12,0.4-0.24,0.84-0.24,1.24c0,0.68,0.16,1.32,0.16,2c-0.32-0.36-0.32-1.56-0.32-2.48l0-0.52z M4.48,40.96c0.4,0,0.72-0.72,0.72-1.04c-0.08-0.12-0.2-0.16-0.32-0.16l-0.04,0l0.04,0.16c0,0.44-0.48,0.52-0.48,0.8c0,0.08,0.08,0.16,0.08,0.24z M6.28,34.48c0.04-0.08,0.08-0.2,0.08-0.32c0-0.16-0.2-0.16-0.28-0.32l0,0.12c0,0.04,0,0.08,0.04,0.12c0,0.16-0.32,0.24-0.32,0.44c0,0.24,0.04,0.44,0.04,0.68c0.08-0.2,0.28-0.56,0.44-0.72z M3.8,44.2c0-0.04,0.04-0.28,0.04-0.32c0-0.12-0.2-0.16-0.2-0.4c-0.16,0.28-0.36,0.28-0.36,0.64c0,0.08,0.16,0.24,0.2,0.28c0.12,0,0.28-0.12,0.32-0.2z M3.28,41.84c-0.2-0.04-0.2-0.2-0.2-0.36c0-0.24,0.16-0.44,0.44-0.44c0,0.2-0.12,0.28-0.12,0.4c0,0.08,0.04,0.2,0.04,0.24z M18.04,36.24c0-0.04-0.08-0.12-0.12-0.16c-0.4,0.16-0.36,0.28-0.4,0.6c0.24-0.04,0.52-0.16,0.52-0.44z M4.2,39.44l-0.12-0.08l0-0.04c-0.12,0.16-0.24,0.32-0.28,0.48c0-0.04-0.04-0.08-0.04-0.16c0-0.32,0.04-0.48,0.28-0.68l0,0.12s0,0.12,0.08,0.2l0,0l0.2,0c-0.08,0-0.12,0.08-0.12,0.16z M20.88,26.12c-0.04,0-0.08,0-0.08-0.04c0-0.2,0.16-0.56,0.28-0.72l0.08,0.12c0,0.2-0.12,0.48-0.28,0.68l0-0.04z M23.16,22c0-0.04-0.12-0.08-0.16-0.08c-0.12,0-0.36,0.24-0.44,0.32c0.04,0.08,0.04,0.16,0.2,0.16s0.28-0.32,0.4-0.4z M13.16,43.16l0,0.2c0,0.2,0,0.4,0.12,0.4l0.04-0.04c0-0.08-0.04-0.16-0.04-0.28s0.04-0.24,0.12-0.36l-0.12-0.12c-0.12,0-0.12,0.16-0.12,0.2z M20.08,29.52c0.08,0,0.24-0.04,0.24-0.16c-0.04-0.08-0.08-0.16-0.16-0.2c-0.2,0.04-0.36,0.28-0.36,0.32c0.04,0.04,0.16,0.04,0.28,0.04z M7.88,30.32c0-0.24,0.4-0.2,0.4-0.6c-0.2,0.12-0.44,0.28-0.44,0.48z M3.64,40.64l-0.08,0.04c-0.04-0.08-0.04-0.12-0.04-0.24c0-0.08,0.08-0.2,0.12-0.24c0.04,0.12,0.16,0.2,0.24,0.28c-0.08,0.04-0.12,0.08-0.24,0.16z M19.44,31.16l0.08-0.2l-0.08-0.04c-0.16,0-0.24,0.2-0.24,0.36z M21.44,24.4l0.12,0.16c0,0.12-0.04,0.32-0.16,0.44l0-0.48z M4.24,42.92l-0.04-0.08c-0.16,0.04-0.28,0.12-0.36,0.2c0,0.08,0.08,0.12,0.12,0.16c0.04-0.12,0.16-0.24,0.28-0.28z M2.48,49.28c0.04-0.08,0.08-0.28,0.08-0.4c0-0.04-0.04-0.08-0.12-0.08l-0.08,0.12c0,0.12,0,0.28,0.12,0.36z M4.36,41.52c-0.04,0.04-0.08,0.12-0.08,0.16l0.04,0.04l0.2-0.12z M3.48,44.92l0.08-0.08c-0.04-0.08-0.12-0.16-0.2-0.16l-0.08,0.16c0.08,0.04,0.16,0.04,0.2,0.08z M13.04,42.56l0.08,0.04c0-0.04,0.04-0.2,0.04-0.24l-0.04-0.2c0,0.12-0.04,0.28-0.08,0.4z M18.56,33.52l-0.12-0.08l-0.08,0.08l0.08,0.08z M19.08,31.76c0-0.04,0.08-0.08,0.12-0.08l-0.12-0.08l-0.08,0.08c0.04,0,0.08,0.04,0.08,0.08z M12.32,34.92c0,0.04-0.04,0.04-0.04,0.12c0-0.04,0.08-0.08,0.12-0.08l0,0s-0.04-0.04-0.08-0.04z M17.52,36.72c0,0.04,0.04,0.12,0.08,0.16c0-0.04,0-0.16-0.08-0.16z M20.32,29.48c0.04,0,0.2,0,0.2-0.04z M22.56,22.84l0.04-0.12l-0.12,0.08z M19.08,32.08l-0.04-0.04l-0.08,0.04l0.12,0z M2.56,50.88l0,0.08l0-0.12l0,0.04z M23.44,21.32c0.04,0,0.04-0.04,0.04-0.08c-0.04,0.04-0.04,0.04-0.04,0.08z M20.04,45.6l0.04,0c0.12-0.92,0.48-2,0.48-2.92c0-0.28,0.24-0.32,0.32-0.52l-0.12-0.28c0.04-0.12,0.16-0.24,0.32-0.36l-0.16-0.28c0.04-0.32,0.24-0.28,0.32-1c0.04-0.16,0.24-0.28,0.28-0.48l-0.12-0.2c0.16-1.2,1.84-4.72,1.84-5.4c0-0.28,0.16-0.48,0.52-0.48c0.76,0,1.52,0.56,1.52,1.28c0,0.56-0.52,0.96-0.52,1.28c-0.12,0.88-0.64,1.6-0.88,2.44c-0.08,0.2-0.56,1.84-0.72,1.96l-0.04,0.24l-0.12,0.2c0,0.12,0.04,0.24,0.04,0.32c0,0.12-0.24,0-0.24,0.2l0.04-0.04l0.16,0.16c-0.04,0.16-0.16,0.4-0.32,0.52c0,0.12,0.12,0.08,0.12,0.2c0,0.72-0.4,1.64-0.52,2.36l0,0.12c0,0.12-0.2,0.28-0.2,0.36c0,0.12,0.08,0.24,0.08,0.32s0,0.08-0.04,0.12l0.12,0.08c0.4,0,1.72-1.64,2-2.04c0.68-1.12,4.76-5.32,4.88-5.64c0.08-0.4,0.56-0.84,1.04-0.84c0.08,0,0.08,0.24,0.08,0.4l0,0.24c0,0.12-0.28,0.32-0.28,0.56c0,0,0,0.04,0.04,0.08c-0.12,0.64-4.32,4.32-5.12,5.16c-0.4,0.4-0.72,0.92-1.04,1.36l0.04,0.08c0.88,0,1.96-2.6,3-3.12l0.04,0.08c-0.04,0.36-2,3.24-2.4,3.72c-0.64,0.8-1.6,1.68-2.56,1.68c-0.6,0-1.2-0.32-1.56-0.72l0,0c-0.4-0.32-0.2-0.76-0.36-1.2z M26.12,32.4c-0.28,0-0.32-0.32-0.84-0.32c-0.4,0-0.68-0.16-0.68-0.6c0-0.16,0-0.36,0.12-0.48c0-0.04-0.04-0.08-0.04-0.12c0-0.28,0.44-0.48,0.68-0.48c0.72,0,1.48,0.56,1.48,1.24c0,0.36-0.32,0.76-0.72,0.76z M21.72,44.96l0.04-0.08l-0.04-0.16l-0.12,0.12z M21.6,45.52l-0.04-0.04c-0.04,0.04-0.08,0.04-0.16,0.08l0.12,0.08z M39.92,44.28c-0.08,0.08-0.12,0.16-0.12,0.28l0.12,0.08c0-0.08,0.08-0.16,0.16-0.16c0.24,0,0.92-0.84,1.12-0.88l0.08,0c-0.08,0.16-0.4,0.72-0.4,0.88l0,0.04s0.04,0,0.04,0.04l0.04,0.04c-0.92,1.24-2.08,2.4-3.28,3.48l-0.08,0l-0.04,0c-0.36,0.2-0.84,0.32-1.28,0.32c-1.4,0-2.4-0.72-2.48-2.04c0-0.16,0-0.36-0.12-0.48l0.12-0.16l0.04,0.12l0,0.08l0,0c0.04,0,0.08-0.08,0.08-0.12c0-0.08-0.04-0.12-0.04-0.16l0.04-0.08c-0.08-0.04-0.2-0.16-0.2-0.24c0-0.28,0.08-0.6,0.16-0.92l0.08,0.12c0.04-0.12,0.04-0.24,0.08-0.36l-0.04-0.04s-0.08,0.04-0.12,0.04s-0.04-0.08-0.04-0.08c0.12-0.04,0.16-0.12,0.16-0.2c0-0.12-0.04-0.28-0.04-0.36c0.04-0.08,0.04-0.24,0.2-0.24l0.2,0.08c-0.2,0.24-0.04,0.48-0.2,0.72l0.32,0.28c0-0.16,0.04-0.32,0.04-0.48l0-0.04l-0.12,0.08l-0.04-0.08c0.04-0.24,0.16-0.52,0.32-0.72c0-0.12-0.2-0.08-0.2-0.24c0-0.4,0.2-0.92,0.36-1.32l-0.12-0.04l-0.16,0.16c-0.04,0-0.04-0.04-0.04-0.12c0-0.28,0.2-0.52,0.2-0.68l0-0.08c0-0.24,0.16-0.52,0.24-0.76c0-0.04-0.04-0.12-0.04-0.12c0-0.52,0.28-1.12,0.48-1.56c0-0.04-0.04-0.16-0.08-0.2c0.16-0.16,0.32-0.36,0.32-0.6c0-0.08-0.08-0.16-0.08-0.24s0.04-0.16,0.12-0.2l0.04,0.04l-0.04-0.04c0-0.28,0.08-0.56,0.08-0.84l-0.16-0.04c-0.88,1.04-1.72,2.12-2.56,3.2c-0.64,0-3.56,7.72-4.84,7.72c-1.08,0-1.12-0.8-1.28-0.8c-0.08,0.04-0.08,0.04-0.12,0.04c-0.12,0-0.2-0.08-0.2-0.12c0-1,0.52-1.92,0.56-2.68c0.08-0.72,0.52-1.44,0.52-2.08l0-0.08c0.12-0.4,0.24-0.64,0.24-1.04l0-0.16c0.44-0.72,0.2-1.28,0.48-1.72c0-0.32,0.72-2.56,0.92-2.84c0-0.04-0.04-0.08-0.04-0.08c0-0.32,0.32-0.6,0.68-0.6c0.16,0,0.44,0.2,0.6,0.32l0.28,0.2c0.12,0.28,0.24,0.56,0.24,0.88c0,0.24-0.12,0.4-0.12,0.64c0,0,0,0.08,0.04,0.16c-0.28,0.4-0.2,0.96-0.4,1.4c0,0.04,0.04,0.08,0.04,0.12c0,0.36-0.2,0.76-0.36,1.08c0,0.16,0.04,0.32,0.04,0.48c-0.2,0.12-0.24,0.36-0.24,0.56c0,0.12,0,0.2,0.04,0.36c0.4-0.2,1.56-2.36,1.84-2.48l-0.04-0.04c0.2-0.32,2.32-3.12,2.36-3.12l-0.04-0.04c0.44-0.4,0.88-0.88,1.2-1.36c0.32-0.36,0.44-1,1.04-1c0.28,0,0.72,0.04,1,0.24c0.04-0.04,0.2-0.16,0.32-0.16c0.44,0,0.52,0.28,0.52,0.6c0,0.4-0.08,0.76-0.16,1.12l-0.12,0.4l0,0.16c-0.16,0.16-0.4,1.16-0.48,1.4l-0.08,0.6l0,0.04c0,1.28-1.56,4.28-1.56,5.92c0,0.28-0.16,0.48-0.16,0.72c0,0.04,0,0.12,0.04,0.2c-0.04,0.12-0.08,0.16-0.08,0.28s0.04,0.28,0.04,0.56c0,0.72,0,1.88,0.36,1.88c0.4,0,1.96-1.52,2.28-1.52l0.04,0c0.44,0,1.2-1.24,1.48-1.32z M26.96,45.6c0,0.08,0.04,0.12,0.04,0.2c0.56-0.28,0.72-1.92,0.76-2.48c0.04-0.44,0.8-3.52,0.96-4l0-0.04c-0.56,0.84-0.36,1.12-0.56,1.76c-0.16,0.32-0.48,2.08-0.68,2.16c-0.24,0.6-0.52,1.72-0.52,2.4z M35.4,37.2c0,0.4-1,3.32-1.28,3.56c0-0.92,1.12-3.56,1.2-3.56l0.08,0z M34.44,42.08c0,0.08,0.04,0.12,0.04,0.2c0,0.16-0.08,0.68-0.32,0.68c-0.12,0-0.08-0.28-0.12-0.36c0.08-0.2,0.2-0.4,0.4-0.52z M35.24,40.04l0-0.12c0.16-0.16,0.24-0.6,0.24-0.84c-0.24,0.28-0.32,0.76-0.32,1.16z M34.08,45.16l0,0.04l0,0.12l0.04,0.04c0.12,0,0.12-0.36,0.12-0.44l0-0.24c-0.16,0.12-0.16,0.32-0.16,0.48z M39.68,44.72l-0.04,0c0,0.04-0.2,0.16-0.2,0.24l0.12,0.08c0.08-0.12,0.08-0.2,0.12-0.32z M28.88,38.68l0-0.04c-0.12,0.04-0.16,0.28-0.16,0.36c0.12-0.08,0.16-0.16,0.16-0.32z M34.76,43.32l0.08,0.12c0.04-0.08,0.04-0.16,0.04-0.24l-0.08-0.04c0,0.08,0,0.12-0.04,0.16z M34.92,41.04l-0.04-0.04l-0.08,0.12l0.08,0.08z M34.44,42.08c0-0.08,0.04-0.16,0.08-0.24l0.04,0.04c-0.04,0.08-0.04,0.12-0.12,0.2z M28.12,43.96l-0.08-0.04c0,0.04-0.04,0.08-0.04,0.12z M35.4,38.28l0.04-0.04c0-0.04,0-0.04-0.04-0.08l0,0.12z M34.48,44.52l-0.04,0.08z M34.08,46.28l0,0.04l0.04,0z M35.6,38.8l-0.04,0l0,0.04c0-0.04,0-0.04,0.04-0.04z M31.6,40.08l0.04,0l0.04,0l-0.08,0z M51.2,40.04l0.16,0.28c-1.04,1.32-2.4,2.48-3.76,3.44c-0.4,0.28-1.68,0.8-1.76,1.2l0.2,0.08l-0.32,0.24l0.04,0.04c0.52-0.12,0.8-0.48,1.24-0.68l0.48,0.2c-0.16,0.16-0.4,0.36-0.68,0.52l0.16,0.12c-0.36,0.2-0.68,0.44-1.04,0.68c-0.24,0.16-2.52,0.96-2.76,0.96c-2.28,0-4.12-1.12-4.12-2.8c0-1.2,0.08-2.8,0.72-3.88c-0.12,0.12,0.56-0.68,0.56-1.24c0-1.2,2.8-4.4,3.6-5.28c0.6-0.68,1.4-0.88,2.36-0.88c1.52,0,2.72,1.12,2.72,2.48c0,2-0.76,1.68-1,2.48c-0.48,1.48-3.36,2.84-4.96,2.84c-0.24,0-0.44-0.04-0.68-0.04c-0.56,0-0.72,1.76-1,1.96l0,0.16c0,0.44-0.12,1.44-0.12,1.8c0,0.4,0,1.56,0.64,1.56c3.92,0,5.52-4.12,8.32-5.44c0.32-0.16,0.96-0.48,1-0.8z M42.6,39.6l0,0.16c0,0.08,0,0.32,0.16,0.32c0.2,0,0.96-0.4,1.16-0.52c0.44,0,3.12-2.04,3.16-2.36c0.08-0.48,0.36-0.96,0.36-1.44c0-0.32-0.08-1.76-0.64-1.76c-1.2,0-2.68,3.56-3.4,4.08c-0.16,0.48-0.44,1.16-0.8,1.52z M48.12,35.44c-0.12,0-0.6,0.84-0.6,0.96s0.04,0.28,0.16,0.28c0.24-0.32,0.44-0.76,0.52-1.12l0.04-0.08z M39.76,42.2c0.04-0.2,0.16-0.44,0.28-0.6c0-0.04,0-0.2-0.08-0.2s-0.2,0.52-0.28,0.6c0,0.08,0,0.16,0.08,0.2z M46.08,45.68l-0.04,0.04c0.04,0,0.08,0.04,0.08,0.04c0.16,0,0.44-0.2,0.52-0.24l-0.04-0.08c-0.28,0-0.32,0.24-0.52,0.24z M50.16,40.6l0-0.04c0.16-0.16,0.4-0.28,0.56-0.44c-0.04,0.24-0.36,0.44-0.56,0.48z M39.8,43.4c0-0.04,0.12-0.16,0.12-0.2s0-0.12-0.04-0.16c-0.16,0-0.2,0.16-0.2,0.24s0.08,0.12,0.12,0.12z M40.2,40.92l0.12-0.16l-0.04-0.08l-0.16,0.08l0,0.2z M39.68,42.56c0-0.04-0.08-0.16-0.08-0.2l-0.04,0.16c0,0.08,0,0.12,0.04,0.2c0.04-0.04,0.08-0.08,0.08-0.16z M41.24,38.52c0-0.04-0.04-0.04-0.04-0.08l-0.16,0.08l0.04,0.12z M41.12,38.32c0.08-0.04,0.08-0.12,0.12-0.16l-0.04-0.08c-0.08,0.08-0.12,0.12-0.16,0.24l0.08,0z M40.36,42.92l0.12-0.12l-0.12-0.04l0,0.16z M51,40l0,0.04c-0.08,0.04-0.2,0.04-0.28,0.08c0.16-0.08,0.08-0.12,0.28-0.12z M39.56,43.12l0.04,0c0-0.04-0.04-0.12-0.08-0.16l-0.04,0.16l0.08,0z M41.32,40.96l0-0.2c-0.04,0.08-0.08,0.12-0.08,0.24z M41.48,38.64l-0.08,0l0.04,0.08c0.04-0.04,0.08-0.04,0.08-0.08l-0.04,0z M40.08,41.2l0.04,0l-0.04-0.04l0.04,0l-0.04-0.04l0,0.08z M57.4,37.2l0,0.04c0.2-0.2,1-0.84,1-1.04c-0.08-0.04-0.16-0.04-0.24-0.04c0.16-0.4,0.68-1.2,0.68-1.56l-0.04,0.04l0.12-0.16l-0.08,0c0.2-0.44,0.28-0.88,0.4-1.32l-0.04-0.08l-0.12,0.28l-0.12-0.04c-0.2,0-0.16,0.28-0.36,0.28l0.04,0.2c0,0.12-0.08,0.2-0.08,0.32l0.2-0.12l0.04,0c-0.04,0.28-0.08,0.72-0.44,0.72l-0.08,0.04l0.12,0.16c0,0.12-0.88,0.48-0.88,1.52l-0.08-0.04c-0.08,0-0.16,0.08-0.16,0.16l0.08,0.04c-0.44,0.24-0.96,1.56-1.32,1.6c0.08-0.24,0.28-0.8,0.52-0.88c0-0.64,1.4-1.72,1.4-2.68c0-0.12,0.4-0.44,0.4-0.8c0-0.44,0.24-0.76,0.4-1.16c0.24-0.72,0.36-1.48,0.36-2.2c0-0.32,0-1.48-0.44-1.48s-1.32,0.48-1.76,0.92l-0.08-0.04c-0.8,0.16-0.88,1.08-1.4,1.16c0,0.12,0.08,0.16,0.08,0.24c0,0.2-1.28,0.84-1.28,1.68l0.04,0c-0.04,0.2-1.08,1.64-1.08,1.88c0,0.08,0.04,0.12,0.04,0.16c-0.12,0.28-0.2,0.6-0.32,0.84l0,0.28c0,0.64-0.04,1.48-0.84,1.48l-0.08-0.04c-0.48,0-1.32-0.16-1.32-0.72l0-0.12c0-0.56,0-2.44,0.84-3.04c0.04,0,0.08-0.08,0.12-0.16c-0.04-0.04-0.08-0.16-0.08-0.2c0-0.28,0.4-0.6,0.56-0.76c0.32-0.24,0.4-0.8,0.68-1.12c0.04,0,0.28,0,0.28-0.08l-0.04-0.2l0.28-0.28c0.32,0.04,0,0.28,0.36,0.28l0-0.2l0.2,0c0-0.24-0.24-0.16-0.24-0.28c0-0.04,0.04-0.08,0.04-0.12l0.12,0.04l0.08-0.08l-0.08-0.12c0.08-0.28,0.76-0.84,1.08-0.84c0.04,0.08,0.2,0.2,0.2,0.28c0,0.04-0.04,0.12-0.04,0.16c0.12,0,0.2-0.12,0.28-0.2l-0.08-0.24l0-0.2l-0.08,0l0.04-0.16l0.08,0.12l0.08-0.04l-0.08,0.08c0.08,0.08,0.2,0.28,0.32,0.28c0.16-0.12,0.44-0.36,0.44-0.56l-0.08-0.16l-0.28,0.12l-0.16-0.08c0.16-0.08,0.28-0.24,0.52-0.28l0.08,0.04c0.24,0,0.4-0.68,0.84-0.68c0.04,0,0.2,0.04,0.24,0.04l0.16-0.08l0.24,0.08c0.12,0,0.12-0.16,0.28-0.16c0.32,0,0.72,0.32,0.88,0.48l0.2-0.08c0.36,0.28,1.16,0,1.36,0.56c0.76,0.76,0.52,1.6,0.92,2.04l-0.04,0.12l0.12,0.12l0.12-0.2l0.04,0.08c-0.04,0.12-0.08,0.28-0.08,0.44c0,0.12,0,0.16,0.04,0.28c-0.08,0.64-0.64,1.44-0.64,2.08c0,0.04,0.04,0.12,0.04,0.16c-0.12,0.28-0.32,0.8-0.44,1.04l0.08,0.12c0,0.36-0.6,0.28-0.6,0.6c0,0.52-0.72,1.68-1.04,2.12c-0.64,0.92-0.64,1.44-1.68,2.32c-0.32,0.24-0.28,0.68-0.56,0.8c-0.12,0.04-1.72,1.96-1.84,2.12c-1.04,1.12-1.96,2.4-3.12,3.4c0.44,0.08,0.96,0.12,1.4,0.12l1.04,0c0.64,0,1.2,0.12,1.2,0.8c0,0.56-1.8,0.64-2.24,0.64c-0.76,0-1.48,0.32-2.2,0.32c-0.24,0-0.48,0.16-0.72,0.16c-0.16,0-0.28-0.04-0.36-0.04c-0.04,0-0.16,0.04-0.16,0.04c-0.08-0.24-0.88-0.68-1.04-0.8c-0.28-0.2,0-0.48-0.4-0.88c0-0.08,0.04-0.24,0.16-0.24c0.08,0,0.16,0,0.2,0.08c0.24,0,1.08-1.24,1.28-1.52s1.2-0.76,1.2-1.12c0.08-0.2,0.76-1.04,1.08-1.04l0.12,0.08c-0.48,0.92-1.68,1.28-2,2.36c-0.32,0.04-1.04,0.88-1.04,1.16c0.16,0,0.24-0.12,0.36-0.12l0.08,0.2c0.2-0.16,0.68-0.6,0.68-0.8l-0.16-0.12l0.16-0.16l0.12,0.04l0.04,0c0.4-0.2,0.8-1.24,1.48-1.44c0.92-0.76,1.72-1.8,2.44-2.68c0.12-0.12,0.48-0.16,0.48-0.32c0-0.04-0.04-0.08-0.04-0.12l0.24-0.36l0.04,0.04s0.08,0,0.08-0.04l-0.08-0.08c0.24-0.24,0.36-0.36,0.52-0.64l0.04,0c0.08-0.16,0.24-0.52,0.48-0.52c0,0,0.04,0.04,0.08,0.04l0.08,0.04l0.24-0.48l-0.04-0.08c0.08-0.68,0.72-1.08,0.92-1.68c-0.04,0.16-0.2,0.28-0.36,0.44c0-0.2,0.16-0.36,0.24-0.52l0.08,0.04l0-0.12l0.04,0z M53.4,41.92l0.08,0.08c-0.08,0-0.2,0.2-0.28,0.2s-0.64,0.88-0.8,0.88l-0.2-0.12c0.2-0.32,0.56-0.76,1-0.8l-0.08-0.08c0.28-0.4,0.64-1.28,1.24-1.28l0.08,0.04c-0.28,0.28-0.72,0.68-1.04,1.08z M52.96,32.72l0.08-0.12c-0.04-0.08-0.08-0.28-0.24-0.28c-0.12,0-0.24,0.2-0.32,0.24l0,0.12c0,0.04,0.04,0.12,0.12,0.12l0,0.04l0.2-0.2z M54.16,30.84c0.12,0,0.24-0.56,0.28-0.68c-0.48,0-0.16,0.32-0.44,0.6c0,0.04,0.12,0.08,0.16,0.08z M50,44.72c-0.68,0.32-0.88,1.28-1.44,1.68l0-0.12c0.44-0.56,0.88-1.08,1.4-1.6z M55.72,39.12l-0.28,0.48l-0.08-0.04c0-0.12,0.2-0.48,0.32-0.48z M52.92,32.2l0-0.08c0.12-0.08,0.16-0.2,0.2-0.36l0-0.04c-0.16,0.04-0.24,0.24-0.32,0.36z M55.72,38.96c0.04-0.16,0.24-0.48,0.4-0.52l0,0.08c-0.12,0.12-0.16,0.44-0.4,0.44z M54.88,40.04l0,0.04c0-0.12,0.2-0.16,0.28-0.16c-0.08,0.16-0.24,0.32-0.4,0.32l-0.04-0.04z M55.24,39.76l0,0.04l-0.16,0.08l0-0.16l0.08-0.12l0.12,0.12z M51.36,44.4c0.12-0.04,0.24-0.2,0.28-0.32l0.08,0c-0.04,0.16-0.16,0.32-0.36,0.32z M56.84,37.96c0,0.16-0.12,0.24-0.24,0.36c0.04-0.16,0.12-0.32,0.24-0.36z M56.32,39.28l0.16-0.16c0,0.08-0.08,0.16-0.16,0.24l0-0.08z M52.36,33.08l0.08-0.04l-0.08-0.12l-0.12,0.08z M55.6,40l0,0.04l0.12-0.12l-0.04-0.08l-0.08,0.08l0,0.08z M54.6,41.08l-0.04,0.08l-0.12,0.04l0.12-0.16z M56.48,38.64l0.12-0.04c0-0.04-0.04-0.08-0.08-0.12z M55.96,39.24l0.12-0.16l0.04,0.04c-0.08,0.04-0.04,0.12-0.16,0.12z M55.16,40.24l0.08,0.04l-0.08,0.12l0-0.16z M58.76,34.76l0.04-0.12l-0.04,0l0,0.12z M55.24,41.8l0-0.08l-0.12,0.08l0.12,0z M56.32,38.64c0-0.04,0.04-0.08,0.12-0.12c0,0.08-0.04,0.12-0.12,0.12z M54.88,30.44l0,0.04l0.04-0.04l-0.04-0.08l0,0.08z M52.8,42.96l0.08,0l-0.08,0.08l0-0.08z M57.36,36.88c0,0.04-0.04,0.04-0.08,0.04l0-0.04l0.08,0z M53.84,31.16l0.04,0s0-0.12-0.04-0.12l0,0.12z M52.4,43.44l0.04,0c0,0.04-0.04,0-0.08,0.04c0-0.04,0.04-0.04,0.04-0.04z M54.72,41.72l0-0.04l-0.04,0l-0.04,0c0,0.04,0.04,0.04,0.08,0.04z M53.32,31.6c0-0.04,0-0.04,0.04-0.08l-0.08,0.04z M54.68,29.92l0.04,0c0-0.04-0.04-0.04-0.08-0.04z M56.44,38.44l-0.08,0.08c0-0.04,0-0.08,0.08-0.08z M53.08,42.08l0.04,0l0-0.08c-0.04,0.04-0.04,0.04-0.04,0.08z M55.04,40.76c0.04-0.04,0.04-0.04,0.04-0.08c0,0.04-0.04,0.04-0.04,0.08z M51.92,43.84l0,0.04l0,0.04l0-0.08z M53.32,43.08l0.04,0c0-0.04,0-0.04-0.04-0.08l0,0.08z M56.12,38.72c0,0.04,0,0.08-0.04,0.08c0.04,0,0.04,0,0.04-0.08z M51.32,44.2l-0.04,0l0,0.04c0.04,0,0.04,0,0.04-0.04z M57.96,35.04l0.08-0.08c-0.08,0-0.08,0-0.08,0.04l0,0.04z M56.84,37.8c0,0.04-0.04,0.04-0.08,0.04c0.04,0,0.08,0,0.08-0.04z M56.48,38.48c0,0-0.04,0-0.04,0.04z M55.44,39.76l0.04,0l-0.04,0z M84.6,25.2c0.04,0,0.16,0.04,0.16,0.12c0,0.48-0.6,0.28-0.84,0.52c-0.2-0.16-0.68-0.2-1.04-0.2c-0.16,0-0.32,0.04-0.4,0.04l-0.12-0.04c-0.08,0.04-0.16,0.12-0.24,0.12c-0.28,0-0.56-0.2-0.8-0.2c-0.08,0.12-0.28,0.32-0.44,0.32l-0.2-0.16l-0.12,0.12l-0.12-0.04c-0.2,0.04-0.36,0.12-0.52,0.12c-0.2,0-0.2-0.2-0.28-0.2s-0.08,0.08-0.08,0.12l0,0.04l-0.52,0.2c-0.04,0-0.16-0.04-0.2-0.04s-0.16,0.04-0.28,0.04c-0.08,0-0.2-0.04-0.24-0.08c-0.4,0.4-1.36,0.24-1.96,0.52l-0.2-0.04c-0.16,0-0.24,0.2-0.44,0.2c-0.04,0-0.16-0.04-0.2-0.04l-0.2,0l-0.2,0c-0.24,0.16-0.6,0.12-0.76,0.4c0,0.12,0.04,0.28,0.12,0.4l-0.04,0.08c-0.12,0-0.24-0.08-0.24-0.16c0.08-0.04,0.08-0.12,0.08-0.2c0-0.04,0-0.16-0.04-0.2l-0.12,0c-0.16,0-0.24,0.2-0.36,0.2c-0.2,0-0.36-0.04-0.56-0.04c-0.12,0-1.36,0.88-1.92,0.88c-0.16,0-0.32-0.12-0.36-0.24c-0.04,0-0.08,0.04-0.08,0.08l0.04,0c-0.12,0.32-0.68,0.44-1,0.72l0.08,0.04c0.16-0.04,0.36-0.04,0.52-0.12l0.08,0.04l-0.08,0.08c-0.8,0-1.08,1.48-1.32,2.04c-0.24,0.72-0.64,1.16-0.64,2c-0.32,0.16-0.36,1.2-0.6,1.6c-0.04,0.16-0.44,0.72-0.44,0.84c0,0.04,0.04,0.08,0.04,0.12c-0.12,0.24-0.2,0.44-0.2,0.68c-0.12,0.24-0.52,0.96-0.52,1.2c0,1.08-0.8,2-0.8,3.16l0.04,0c0.68-0.24,1.56-0.64,2.24-0.64l0.24,0.08c0.4,0,0.84-0.44,1.16-0.64c0.16,0,0.24,0.04,0.32,0.08c0.08,0,0.04-0.24,0.4-0.24c0.04,0,0.12,0.04,0.16,0.08c0.84-0.56,1.56-0.96,2.6-0.96l0.24,0.08c0-0.08,0.08-0.16,0.16-0.24l0.2,0.08l0,0.12l0,0.2c0.24,0.04,0.28,0.24,0.28,0.44c-0.08,0.08-0.28,0.2-0.4,0.2c-0.08,0-0.16-0.32-0.24-0.4l0.08-0.16l-0.08-0.04l-0.16,0.04l-0.16-0.04l-0.08,0.16c0.04,0.04,0.04,0.04,0.04,0.08c0,0.12-0.16,0.28-0.28,0.32c0.16,0.08,0.32,0,0.44,0.12c-0.96,0.56-1.52,0.8-2.28,1.16c-0.2,0-0.24-0.12-0.36-0.12l-0.12,0.08l-0.04,0l-0.28,0.16c-0.52,0.32-1.4,0.48-1.88,0.84c-0.96,0.76-3.08,0.52-3.12,2.32c0,0.28-0.16,1.24-0.36,1.48l0.04,0.04c0,0.92-0.72,1.8-0.72,2.68c0,0.96-0.48,1.8-0.48,2.76c0,0.12,0,0.2,0.08,0.28c0,0.32-0.16,0.72-0.16,1.08l0.12,0.2c-0.04,0.04-0.04,0.16-0.04,0.24c0,0.24,0.04,0.52,0.12,0.64c0,0.4-0.12,0.4-0.52,0.4c-1.64,0-2-2-2-2.8c0-1.16,0.68-2.36,0.72-3.52c0-0.24,0.4-1.8,0.56-1.8l0.08,0.04c0.08,0,0.2-0.08,0.24-0.2l0,0.04c0.04,0.04,0.04,0.04,0.04,0.08s-0.04,0.12-0.04,0.16c0,0,0.04,0.04,0.04,0.08c0.04-0.08,0.12-0.16,0.16-0.24c-0.04,0-0.04-0.04-0.04-0.08c0-0.24,0.24-0.44,0.24-0.68c0-0.04-0.04-0.12-0.04-0.2c-0.08,0.16-0.36,0.52-0.52,0.52l-0.04-0.04c0-0.96,0.56-0.8,0.84-1.6l-0.08-0.12l-0.52,0.56l-0.04-0.16c0.04-0.12,0.04-0.28,0.08-0.44c0-0.24-0.24-0.4-0.48-0.4l-0.8,0.52c-0.16,0-0.12-0.2-0.16-0.28c0-0.32,0.52-1.28,1.12-1.28c0.8,0,0.8-0.48,0.92-1.16c0.04-0.4,0.6-1.24,0.6-1.44c0-0.72,0.52-1.28,0.52-2.04c0-0.12-0.04-0.16-0.04-0.28c0.28-0.52,0.56-2.04,1-2.96c0.36-0.76,0.6-1.64,0.96-2.36c0.24-0.48,0-0.96,0.52-1.44c0-0.08-0.08-0.16-0.16-0.16c-0.6,0-1.04,0.28-1.64,0.32c-0.12,0-0.28-0.04-0.48-0.04c-0.12,0-0.2,0.04-0.36,0.04c-0.88-0.24-3.28-0.44-3.28-1.92c0.08-0.16,0.24-0.32,0.48-0.32c0.44,0.16,0.88,0.28,1.36,0.28c0.84,0,1.64-0.44,2.48-0.44c0.56,0,1.08-0.48,1.76-0.48c0.08,0,0.2,0.04,0.32,0.04c0.24-0.16,0.96-0.44,1.28-0.44c0.08,0.04,0.2,0.08,0.24,0.08c0.16,0,2.16-0.76,2.84-0.76c0.28,0,0.72,0,0.88-0.16c0,0.08,0,0.16,0.04,0.24c0.4-0.4,0.84-0.44,1.44-0.44c0.08,0,0.08,0.16,0.24,0.16l0.16-0.08l-0.16-0.12c0.08-0.08,0.2-0.08,0.32-0.12l0.12,0.08l0.24-0.08l0.16,0.08c-0.12,0.08-0.32,0.16-0.36,0.28l-0.16-0.04l-0.12,0.16l0.08,0.04c0.04-0.04,0.08-0.04,0.12-0.04c0.12,0,0.08,0.2,0.28,0.2c0.04,0,0.36-0.08,0.48-0.12l-0.04-0.08l0.08-0.12c0,0.08,0.08,0.12,0.16,0.12c0,0,0.12-0.04,0.16-0.04l0.08,0.04l0,0.04c0.16,0,0.52-0.24,0.64-0.36c0.12,0.08,0,0.2,0.2,0.2l0.04-0.04l0.12,0.08l0.24-0.16l-0.04-0.08c0.08-0.16,0.32-0.12,0.32-0.28l-0.16-0.2c0-0.28,1.6,0,2.16-0.48l0.08,0.08l0.04,0s-0.4,0.28-0.44,0.32l-0.16-0.04l-0.28,0.28c0.04,0.04,0.04,0.16,0.16,0.16c0.32,0,1.16-0.04,1.36-0.32c0-0.16-0.32-0.24-0.4-0.36c0.12-0.12,0.2-0.24,0.36-0.24c0.04,0,0.08,0.04,0.12,0.04c0.08-0.04,0.16-0.08,0.32-0.08c0.92,0,1.24-0.44,1.88-0.44c0.28,0,0.36,0.36,0.48,0.36s0.92,0.4,1.08,0.48c0.12-0.04,0.16-0.04,0.2-0.04c0.2,0,0.2,0.24,0.2,0.44z M75.28,37.6c0,0.12-0.28,0.4-0.4,0.4c-0.08-0.08-0.12-0.16-0.24-0.16c-0.28,0-0.16,0.28-0.28,0.32c-0.16-0.24-0.52,0.04-0.52-0.32c0.16-0.12,0.96-0.4,1.08-0.4c0.08,0,0.04,0.16,0.36,0.16z M78.72,25.04c0.04-0.04,0.12-0.08,0.12-0.16l-0.2,0l-0.16,0l-0.16,0.08c-0.08,0.04-0.48,0.12-0.48,0.24l0.32,0c0.04,0.08,0.04,0.16,0.08,0.2l0,0.12c0.2-0.04,0.32-0.48,0.48-0.48z M75.68,25.52l-0.08,0l-0.08-0.08c0-0.28,0.56-0.24,0.84-0.36c0.04,0.08,0,0.2,0.04,0.28c0,0.08-0.12,0.16-0.2,0.16c-0.12,0-0.2-0.04-0.28-0.12c-0.08,0.04-0.16,0.04-0.24,0.12z M73.76,26.16c0.08-0.04,0.16-0.08,0.2-0.08c-0.08-0.08-0.2-0.08-0.4-0.16l-0.36,0.28c0.12,0.08,0.2,0.12,0.28,0.12s0.28-0.08,0.28-0.16z M76,37.4l0.04,0.04c-0.2,0.08-0.36,0.12-0.48,0.12l-0.04-0.04c0-0.12,0-0.24,0.16-0.24c0.04,0.08,0.16,0.12,0.32,0.12z M64.44,38.8c0.2-0.16,0.24-0.64,0.32-0.84l-0.08-0.08c-0.08,0.08-0.16,0.72-0.28,0.84z M72.72,27.88l0,0.04c0,0.12-0.36,0.2-0.4,0.2l-0.08-0.04c0-0.16,0.36-0.2,0.48-0.2z M71.2,28.24c0.08,0,0.16-0.04,0.24-0.04c0.04,0,0.16,0.04,0.2,0.04c-0.16,0.12-0.28,0.16-0.4,0.16l-0.12-0.04z M72.76,26.48l0.12-0.04c-0.24-0.04-0.2-0.28-0.36-0.28l-0.04,0.08l0.04,0.12c0,0.04-0.08,0.08-0.08,0.12l0.32,0z M71.8,26.48l0.12,0.16c0.16,0,0.2-0.16,0.24-0.28l-0.04-0.04c-0.12,0-0.32,0.04-0.32,0.16z M74.36,26l0.08-0.08l-0.08-0.12c-0.08,0-0.32,0-0.32,0.08c0.04,0.08,0.24,0.12,0.32,0.12z M62.84,45.56c0-0.04,0-0.08-0.08-0.08l-0.12,0.08l0,0.24l0.04,0.04c0.08-0.08,0.16-0.24,0.16-0.28z M76.96,25.28l-0.04-0.04l0.32-0.16l0.04,0.04c0,0.08-0.04,0.16-0.2,0.2z M62.32,47.56c0.08-0.12,0.16-0.28,0.16-0.4l-0.08-0.04c-0.08,0.12-0.08,0.28-0.12,0.44l0.04,0z M64.2,39.56l-0.08,0.12c0,0.08,0.04,0.12,0.08,0.2c0.04-0.04,0.08-0.16,0.08-0.24s0-0.08-0.08-0.08z M62.6,46.32c0.04-0.08,0.04-0.16,0.04-0.28l-0.04-0.04c-0.04,0.04-0.12,0.16-0.12,0.24s0.04,0.08,0.12,0.08z M72.08,27.48l0.04,0l-0.04-0.04c-0.08,0-0.2,0-0.28,0.08c0,0.04,0,0.08,0.04,0.08c0.08,0,0.2-0.08,0.24-0.12z M64.08,40.32c0.08-0.08,0.16-0.08,0.2-0.16l-0.08-0.08c-0.12,0-0.12,0.16-0.12,0.2l0,0.04z M74.48,37.76l0.08-0.08l-0.08,0c-0.08,0-0.2,0.04-0.28,0.04l0.04,0.12c0.08-0.04,0.16-0.04,0.24-0.08z M62.56,45l-0.08-0.04c0-0.08,0-0.2,0.12-0.24l0.04,0.04c0,0.08,0,0.2-0.08,0.24z M72,38.96c-0.12,0-0.24,0.08-0.24,0.16l0.04,0.04c0.04-0.04,0.2-0.12,0.24-0.2l-0.04,0z M73.76,38.4l-0.12,0.08l0.12,0.16l0.04-0.12z M63.8,45.96l0-0.12l-0.16,0.08l0.08,0.08z M63.52,43.76c0.08,0,0.08-0.04,0.08-0.12s0-0.2-0.12-0.2c0,0.12,0.04,0.24,0.04,0.32z M75.84,37.2l0.24-0.04c-0.04,0.08-0.08,0.12-0.24,0.12l0-0.08z M72.24,38.6l-0.08,0.04l0.04,0.12c0.08-0.04,0.12-0.08,0.12-0.12z M73.24,38.64c0-0.08,0.12-0.16,0.16-0.16l-0.04,0.16l-0.12,0z M63.44,45.04l0.08-0.16l-0.04,0l-0.08,0.16l0.04,0l0,0z M64.32,39.24l0.08-0.08l-0.04-0.12c0,0.04-0.04,0.08-0.04,0.12l0,0.08z M76.24,37.16c-0.04,0-0.12,0-0.16-0.04l0.28,0z M71.88,38.52l-0.24,0.08l0.04,0.04c0.08-0.04,0.12-0.04,0.2-0.12z M65.6,35.12l0.08-0.04l-0.08-0.08l0,0.12z M72.88,38.16l-0.16,0.12c0.04,0,0.2,0,0.2-0.08z M71.8,28.16l0.08-0.08l0.12,0.04l-0.08,0.08z M63.24,43.52c0.04,0,0.08,0,0.08-0.08l0-0.04c-0.04,0.04-0.08,0.04-0.08,0.08l0,0.04z M81.24,24.72c0-0.08-0.04-0.08-0.12-0.12l0,0.08c0,0.04,0.08,0.04,0.12,0.04z M65.08,36.6l0.04-0.04l-0.04-0.08c-0.04,0.04-0.04,0.08-0.04,0.08z M63.76,40.44l0.08-0.04l-0.04-0.08z M65.12,39.32c0-0.04,0-0.04,0.04-0.04l-0.04-0.04l0,0.08z M66.16,33.4l0,0.08l0,0.04l0.08-0.04c0-0.04,0-0.04-0.08-0.08z M68.56,39.52l0.08,0.08s-0.12,0-0.12-0.04z M79.88,24.8l-0.12,0.08l-0.04,0z M62.64,48.52l0.04-0.08l-0.04-0.04l-0.04,0.08z M65.6,37.68l0.04-0.04l0-0.04l-0.08,0.08l0.04,0z M63.28,45.88l0.04-0.04l0,0l-0.08,0.04l0.04,0z M63.88,40.04c0,0.04-0.04,0.04-0.04,0.04c0.04,0,0.04,0,0.04-0.04l0-0.04l0,0.04z M72.52,38.32c-0.04,0-0.04,0-0.04,0.04l0.04-0.04l0,0z M64.16,39.04c0,0.04,0,0.04-0.04,0.04l0.04,0.04c0-0.04,0-0.04,0.04-0.04z M65.96,35.88l0.04-0.08c-0.04,0-0.04,0-0.08,0.04c0.04,0,0.04,0,0.04,0.04z M64.96,37.04l0,0l0-0.04l0,0.04z M64.96,37.24l-0.04,0.04c0,0.04,0,0.04,0.04,0.04l0-0.08z M71.12,38.76l0,0.04l0,0l0.04,0z M66.08,33.72c0-0.04,0.04-0.04,0.04-0.04z M63.8,40.08l0,0.04c0-0.04,0-0.04,0.04-0.04l-0.04,0z M73.6,45.6l0.04,0c0.12-0.92,0.48-2,0.48-2.92c0-0.28,0.24-0.32,0.32-0.52l-0.12-0.28c0.04-0.12,0.16-0.24,0.32-0.36l-0.16-0.28c0.04-0.32,0.24-0.28,0.32-1c0.04-0.16,0.24-0.28,0.28-0.48l-0.12-0.2c0.16-1.2,1.84-4.72,1.84-5.4c0-0.28,0.16-0.48,0.52-0.48c0.76,0,1.52,0.56,1.52,1.28c0,0.56-0.52,0.96-0.52,1.28c-0.12,0.88-0.64,1.6-0.88,2.44c-0.08,0.2-0.56,1.84-0.72,1.96l-0.04,0.24l-0.12,0.2c0,0.12,0.04,0.24,0.04,0.32c0,0.12-0.24,0-0.24,0.2l0.04-0.04l0.16,0.16c-0.04,0.16-0.16,0.4-0.32,0.52c0,0.12,0.12,0.08,0.12,0.2c0,0.72-0.4,1.64-0.52,2.36l0,0.12c0,0.12-0.2,0.28-0.2,0.36c0,0.12,0.08,0.24,0.08,0.32s0,0.08-0.04,0.12l0.12,0.08c0.4,0,1.72-1.64,2-2.04c0.68-1.12,4.76-5.32,4.88-5.64c0.08-0.4,0.56-0.84,1.04-0.84c0.08,0,0.08,0.24,0.08,0.4l0,0.24c0,0.12-0.28,0.32-0.28,0.56c0,0,0,0.04,0.04,0.08c-0.12,0.64-4.32,4.32-5.12,5.16c-0.4,0.4-0.72,0.92-1.04,1.36l0.04,0.08c0.88,0,1.96-2.6,3-3.12l0.04,0.08c-0.04,0.36-2,3.24-2.4,3.72c-0.64,0.8-1.6,1.68-2.56,1.68c-0.6,0-1.2-0.32-1.56-0.72l0,0c-0.4-0.32-0.2-0.76-0.36-1.2z M79.68,32.4c-0.28,0-0.32-0.32-0.84-0.32c-0.4,0-0.68-0.16-0.68-0.6c0-0.16,0-0.36,0.12-0.48c0-0.04-0.04-0.08-0.04-0.12c0-0.28,0.44-0.48,0.68-0.48c0.72,0,1.48,0.56,1.48,1.24c0,0.36-0.32,0.76-0.72,0.76z M75.28,44.96l0.04-0.08l-0.04-0.16l-0.12,0.12z M75.16,45.52l-0.04-0.04c-0.04,0.04-0.08,0.04-0.16,0.08l0.12,0.08z M81.48,45.76c0-0.16,0.08-0.32,0.08-0.48c0-0.12-0.04-0.24-0.04-0.4c0-0.48,0.08-0.84,0.2-1.32c-0.04-0.08-0.04-0.16-0.04-0.24c0-0.2,0.12-0.4,0.12-0.64l-0.04,0l0.04-0.2c-0.04-0.08-0.04-0.24-0.04-0.44c0-1,0.2-2.24,0.32-2.36l-0.12-0.16l0.04-0.12c-0.04-0.08-0.04-0.2-0.04-0.36c0-0.84,0.28-2.64,0.68-2.64c0.24,0,0.52,0,0.84,0.12l0.2,0.08s0.16,0.08,0.2,0.08l0-0.04c0.44,0.56,0.52-0.08,0.52,1.24c0,0.2-0.2,0.32-0.2,0.52c0,0.24,0.12,0.48,0.12,0.72c0,0.16-0.12,2.12-0.28,2.36c0,0.04,0.04,0.16,0.04,0.2c0,0.36-0.12,0.8-0.12,1.16c0,0.12,0.04,0.16,0.04,0.24l0.2,0.12c0.24,0,1.6-3.04,1.96-3.04c0.12,0,0.16,0.08,0.16,0.2l-0.2,0.4l0.04,0.08c0,0.08-0.2,0.2-0.32,0.24c-0.04-0.04-0.12-0.04-0.2-0.08c-0.12,0-0.2,0.2-0.2,0.24c0,0.16,0.24,0.16,0.36,0.2c0.52,0,0.72-2,1.28-2.32c-0.04,0-0.32,0-0.32-0.12c0-0.16,0.08-0.32,0.28-0.36c0.12,0.08,0.2,0.24,0.4,0.24l0.12-0.16c0-0.08-0.12-0.12-0.16-0.16c0.04-0.12,0.24-0.36,0.24-0.44l-0.12-0.08l-0.12,0.08c-0.04-0.08-0.16-0.16-0.16-0.24c0-0.44,0.64-0.44,0.76-0.72l0.08,0.04c-0.04,0.28-0.08,0.48-0.36,0.64l0.08,0.04c0.32,0,0.52-0.4,0.6-0.68l0.08-0.24c0-0.04,0.04-0.12,0.04-0.12c0.08-0.28,0.32-0.28,0.32-0.56c0-0.36-0.44-0.2-0.44-0.4c0-0.16,0.12-0.28,0.28-0.36l0.12,0.04l0.08-0.08c-0.08-0.04-0.2-0.12-0.2-0.2l0.04-0.04l0.16,0.04l0.08,0l0.08,0.16c0,0.12-0.16,0.2-0.16,0.48l0.08,0.04c0.36-0.08,0.48-0.68,0.48-0.96c-0.08-0.04-0.2-0.2-0.2-0.28l0.08-0.08l0.12,0.08c0.24,0,0.56-0.12,0.64-0.36c-0.16-0.16-0.4,0-0.4-0.2s-0.2-0.24-0.32-0.32c0.04-0.08,0.12-0.28,0.24-0.28c0.08,0,0.24,0.28,0.24,0.36l0,0.12c0,0.08,0.16,0.12,0.2,0.12c0.16,0,0.16-0.24,0.32-0.32l0.12,0.08l-0.12,0.2l0.12,0c0.16,0,0.24,0.2,0.24,0.36c0,0.32-1,1.28-1.16,2.08c-0.2,0.84-0.44,1.56-1.04,2.24c0.04,0.04,0.08,0.16,0.08,0.2c0,0.28-0.32,0.92-0.52,1.2c-0.64,1.2-0.68,2-1.4,2.92c0,0.48-0.36,0.84-0.52,1.28c-0.32,0.72-1.8,3.76-2.72,3.76c-0.12,0-0.16-0.04-0.24-0.04s-0.2,0.12-0.32,0.12c-0.6,0-1.44-0.4-1.44-1.04c0-0.48,0.04-0.96,0.04-1.44z M91.16,31.12l0,0.12c0,0.52-0.64,0.96-0.64,1.16s-0.32,0.28-0.44,0.36l-0.08-0.16l0-0.2c0.08-0.08,0.64-0.48,0.64-0.64l0,0c0.08-0.16,0.32-0.64,0.52-0.64z M88.16,36.24c0,0.24-0.04,0.52-0.32,0.52c-0.12,0-0.12-0.04-0.12-0.12c0-0.24,0.2-0.56,0.28-0.72c0.08,0.08,0.16,0.2,0.16,0.32z M90.68,33.52l0.16,0.08l0.2-0.08l0.04,0.16c-0.08,0.08-0.32,0.28-0.4,0.28c-0.12,0-0.12-0.12-0.12-0.16l0-0.12c0-0.08,0-0.16,0.12-0.16z M91.4,32.88l0,0.12c-0.12,0.16,0,0.24-0.24,0.36l-0.08,0c0.12-0.16,0.12-0.36,0.32-0.48z M90,33.2l-0.08-0.2c0.08-0.08,0.12-0.12,0.12-0.16c0.04,0.04,0.08,0.12,0.08,0.2z M90.8,33.12l-0.08-0.08c0-0.04,0.08-0.08,0.2-0.08c0,0,0.04,0.04,0.08,0.04c0,0.12-0.08,0.12-0.2,0.12z M89.2,34.16l0.12-0.12l0.04,0.12l-0.04,0.16z M85.2,42.72l0.08-0.08l0-0.08l-0.2,0.12z M90.36,33.16l-0.04,0.04l-0.08-0.04l0.12,0z M101.72,40.04l0.16,0.28c-1.04,1.32-2.4,2.48-3.76,3.44c-0.4,0.28-1.68,0.8-1.76,1.2l0.2,0.08l-0.32,0.24l0.04,0.04c0.52-0.12,0.8-0.48,1.24-0.68l0.48,0.2c-0.16,0.16-0.4,0.36-0.68,0.52l0.16,0.12c-0.36,0.2-0.68,0.44-1.04,0.68c-0.24,0.16-2.52,0.96-2.76,0.96c-2.28,0-4.12-1.12-4.12-2.8c0-1.2,0.08-2.8,0.72-3.88c-0.12,0.12,0.56-0.68,0.56-1.24c0-1.2,2.8-4.4,3.6-5.28c0.6-0.68,1.4-0.88,2.36-0.88c1.52,0,2.72,1.12,2.72,2.48c0,2-0.76,1.68-1,2.48c-0.48,1.48-3.36,2.84-4.96,2.84c-0.24,0-0.44-0.04-0.68-0.04c-0.56,0-0.72,1.76-1,1.96l0,0.16c0,0.44-0.12,1.44-0.12,1.8c0,0.4,0,1.56,0.64,1.56c3.92,0,5.52-4.12,8.32-5.44c0.32-0.16,0.96-0.48,1-0.8z M93.12,39.6l0,0.16c0,0.08,0,0.32,0.16,0.32c0.2,0,0.96-0.4,1.16-0.52c0.44,0,3.12-2.04,3.16-2.36c0.08-0.48,0.36-0.96,0.36-1.44c0-0.32-0.08-1.76-0.64-1.76c-1.2,0-2.68,3.56-3.4,4.08c-0.16,0.48-0.44,1.16-0.8,1.52z M98.64,35.44c-0.12,0-0.6,0.84-0.6,0.96s0.04,0.28,0.16,0.28c0.24-0.32,0.44-0.76,0.52-1.12l0.04-0.08z M90.28,42.2c0.04-0.2,0.16-0.44,0.28-0.6c0-0.04,0-0.2-0.08-0.2s-0.2,0.52-0.28,0.6c0,0.08,0,0.16,0.08,0.2z M96.6,45.68l-0.04,0.04c0.04,0,0.08,0.04,0.08,0.04c0.16,0,0.44-0.2,0.52-0.24l-0.04-0.08c-0.28,0-0.32,0.24-0.52,0.24z M100.68,40.6l0-0.04c0.16-0.16,0.4-0.28,0.56-0.44c-0.04,0.24-0.36,0.44-0.56,0.48z M90.32,43.4c0-0.04,0.12-0.16,0.12-0.2s0-0.12-0.04-0.16c-0.16,0-0.2,0.16-0.2,0.24s0.08,0.12,0.12,0.12z M90.72,40.92l0.12-0.16l-0.04-0.08l-0.16,0.08l0,0.2z M90.2,42.56c0-0.04-0.08-0.16-0.08-0.2l-0.04,0.16c0,0.08,0,0.12,0.04,0.2c0.04-0.04,0.08-0.08,0.08-0.16z M91.76,38.52c0-0.04-0.04-0.04-0.04-0.08l-0.16,0.08l0.04,0.12z M91.64,38.32c0.08-0.04,0.08-0.12,0.12-0.16l-0.04-0.08c-0.08,0.08-0.12,0.12-0.16,0.24l0.08,0z M90.88,42.92l0.12-0.12l-0.12-0.04l0,0.16z M101.52,40l0,0.04c-0.08,0.04-0.2,0.04-0.28,0.08c0.16-0.08,0.08-0.12,0.28-0.12z M90.08,43.12l0.04,0c0-0.04-0.04-0.12-0.08-0.16l-0.04,0.16l0.08,0z M91.84,40.96l0-0.2c-0.04,0.08-0.08,0.12-0.08,0.24z M92,38.64l-0.08,0l0.04,0.08c0.04-0.04,0.08-0.04,0.08-0.08l-0.04,0z M90.6,41.2l0.04,0l-0.04-0.04l0.04,0l-0.04-0.04l0,0.08z"/></g></svg>